<svg width="26" height="31" viewBox="0 0 26 31" fill="none" xmlns="http://www.w3.org/2000/svg">
<path d="M20.4286 9.5834V7.7084C20.4286 3.57286 17.0961 0.208405 13 0.208405C8.90384 0.208405 5.57143 3.57286 5.57143 7.7084V9.5834H0V25.5209C0 28.1098 2.07867 30.2084 4.64286 30.2084H21.3571C23.9213 30.2084 26 28.1098 26 25.5209V9.5834H20.4286ZM9.28571 7.7084C9.28571 5.64063 10.9519 3.9584 13 3.9584C15.0481 3.9584 16.7143 5.64063 16.7143 7.7084V9.5834H9.28571V7.7084ZM18.5714 14.7397C17.8022 14.7397 17.1786 14.1101 17.1786 13.3334C17.1786 12.5567 17.8022 11.9272 18.5714 11.9272C19.3407 11.9272 19.9643 12.5567 19.9643 13.3334C19.9643 14.1101 19.3407 14.7397 18.5714 14.7397ZM7.42857 14.7397C6.65931 14.7397 6.03571 14.1101 6.03571 13.3334C6.03571 12.5567 6.65931 11.9272 7.42857 11.9272C8.19783 11.9272 8.82143 12.5567 8.82143 13.3334C8.82143 14.1101 8.19783 14.7397 7.42857 14.7397Z" fill="white"/>
</svg>
