<svg width="36" height="22" viewBox="0 0 36 22" fill="none" xmlns="http://www.w3.org/2000/svg">
<path d="M10.125 11.2084C12.5373 11.2084 14.5 9.24567 14.5 6.8334C14.5 4.42114 12.5373 2.4584 10.125 2.4584C7.71273 2.4584 5.75 4.42114 5.75 6.8334C5.75 9.24567 7.71273 11.2084 10.125 11.2084ZM29.375 4.2084H17.125C16.6416 4.2084 16.25 4.59997 16.25 5.0834V12.9584H4V1.5834C4 1.09997 3.60844 0.708405 3.125 0.708405H1.375C0.891562 0.708405 0.5 1.09997 0.5 1.5834V20.8334C0.5 21.3168 0.891562 21.7084 1.375 21.7084H3.125C3.60844 21.7084 4 21.3168 4 20.8334V18.2084H32V20.8334C32 21.3168 32.3916 21.7084 32.875 21.7084H34.625C35.1084 21.7084 35.5 21.3168 35.5 20.8334V10.3334C35.5 6.95044 32.758 4.2084 29.375 4.2084Z" fill="white"/>
</svg>
