<svg width="24" height="29" viewBox="0 0 24 29" fill="none" xmlns="http://www.w3.org/2000/svg">
<path d="M11.9945 1.03973C12.0387 1.29676 12.8846 6.20769 12.8846 8.08346C12.8846 10.9436 11.3476 12.9834 9.07524 13.8038L9.78846 26.8248C9.82716 27.574 9.22452 28.2084 8.46154 28.2084H4.92308C4.16562 28.2084 3.55745 27.5795 3.59615 26.8248L4.30938 13.8038C2.03149 12.9834 0.5 10.9381 0.5 8.08346C0.5 6.20222 1.34591 1.29676 1.39014 1.03973C1.56707 -0.0704227 3.89471 -0.0868291 4.03846 1.09989V8.82174C4.11034 9.00768 4.87332 8.99674 4.92308 8.82174C5.00048 7.43815 5.35986 1.20926 5.36538 1.06707C5.54784 -0.0704227 7.83678 -0.0704227 8.0137 1.06707C8.02476 1.21473 8.37861 7.43815 8.45601 8.82174C8.50577 8.99674 9.27428 9.00768 9.34062 8.82174V1.09989C9.48437 -0.0813604 11.8175 -0.0704227 11.9945 1.03973ZM18.5849 16.6639L17.7555 26.7865C17.6892 27.5522 18.3029 28.2084 19.0769 28.2084H22.1731C22.9084 28.2084 23.5 27.6233 23.5 26.8959V1.52098C23.5 0.799106 22.9084 0.208483 22.1731 0.208483C17.6118 0.208483 9.93221 9.97017 18.5849 16.6639Z" fill="white"/>
</svg>
