<svg width="30" height="30" viewBox="0 0 30 30" fill="none" xmlns="http://www.w3.org/2000/svg">
<path d="M18.1136 11.6469V16.2493C18.1136 16.3658 18.023 16.4565 17.9065 16.4565H17.1685C17.0973 16.4565 17.0326 16.4176 17.0002 16.3723L14.89 13.5241V16.2558C14.89 16.3723 14.7993 16.4629 14.6828 16.4629H13.9449C13.8283 16.4629 13.7377 16.3723 13.7377 16.2558V11.6534C13.7377 11.5368 13.8283 11.4462 13.9449 11.4462H14.6763C14.7411 11.4462 14.8123 11.4786 14.8446 11.5368L16.9549 14.385V11.6534C16.9549 11.5368 17.0455 11.4462 17.1621 11.4462H17.9C18.0165 11.4397 18.1136 11.5368 18.1136 11.6469ZM12.8056 11.4397H12.0676C11.9511 11.4397 11.8605 11.5304 11.8605 11.6469V16.2493C11.8605 16.3658 11.9511 16.4565 12.0676 16.4565H12.8056C12.9221 16.4565 13.0127 16.3658 13.0127 16.2493V11.6469C13.0127 11.5368 12.9221 11.4397 12.8056 11.4397ZM11.0255 15.2978H9.01228V11.6469C9.01228 11.5304 8.92166 11.4397 8.80514 11.4397H8.06719C7.95068 11.4397 7.86005 11.5304 7.86005 11.6469V16.2493C7.86005 16.3076 7.87947 16.3529 7.91831 16.3917C7.95715 16.4241 8.00246 16.45 8.06072 16.45H11.019C11.1355 16.45 11.2261 16.3594 11.2261 16.2429V15.5049C11.2261 15.3949 11.1355 15.2978 11.0255 15.2978ZM21.9975 11.4397H19.0393C18.9292 11.4397 18.8321 11.5304 18.8321 11.6469V16.2493C18.8321 16.3594 18.9228 16.4565 19.0393 16.4565H21.9975C22.1141 16.4565 22.2047 16.3658 22.2047 16.2493V15.5114C22.2047 15.3949 22.1141 15.3042 21.9975 15.3042H19.9844V14.5275H21.9975C22.1141 14.5275 22.2047 14.4368 22.2047 14.3203V13.5759C22.2047 13.4594 22.1141 13.3688 21.9975 13.3688H19.9844V12.592H21.9975C22.1141 12.592 22.2047 12.5013 22.2047 12.3848V11.6469C22.1982 11.5368 22.1076 11.4397 21.9975 11.4397ZM29.5 5.78862V24.2567C29.4935 27.1567 27.1178 29.5065 24.2114 29.5H5.74331C2.84331 29.4935 0.49354 27.1114 0.500013 24.2114V5.74331C0.506487 2.84331 2.88863 0.49354 5.78862 0.500013H24.2567C27.1567 0.506487 29.5065 2.88215 29.5 5.78862ZM25.5125 13.7248C25.5125 8.99934 20.7741 5.15425 14.9547 5.15425C9.13527 5.15425 4.39688 8.99934 4.39688 13.7248C4.39688 17.9583 8.15135 21.5056 13.2263 22.1788C14.4627 22.4442 14.3203 22.8973 14.042 24.5609C13.9967 24.8263 13.8284 25.6031 14.9547 25.1306C16.081 24.658 21.033 21.5509 23.2533 19.0004C24.781 17.3174 25.5125 15.615 25.5125 13.7248Z" fill="#7E4E24"/>
</svg>
