<svg width="29" height="28" viewBox="0 0 29 28" fill="none" xmlns="http://www.w3.org/2000/svg">
<path d="M25.5 0H3.5C2.70435 0 1.94129 0.316071 1.37868 0.87868C0.81607 1.44129 0.5 2.20435 0.5 3L0.5 25C0.5 25.7956 0.81607 26.5587 1.37868 27.1213C1.94129 27.6839 2.70435 28 3.5 28H12.0781V18.4806H8.14062V14H12.0781V10.585C12.0781 6.70062 14.3906 4.555 17.9325 4.555C19.6287 4.555 21.4025 4.8575 21.4025 4.8575V8.67H19.4481C17.5225 8.67 16.9219 9.865 16.9219 11.0906V14H21.2206L20.5331 18.4806H16.9219V28H25.5C26.2956 28 27.0587 27.6839 27.6213 27.1213C28.1839 26.5587 28.5 25.7956 28.5 25V3C28.5 2.20435 28.1839 1.44129 27.6213 0.87868C27.0587 0.316071 26.2956 0 25.5 0Z" fill="#7E4E24"/>
</svg>
