<svg width="20" height="21" viewBox="0 0 20 21" fill="none" xmlns="http://www.w3.org/2000/svg">
<path d="M10 11.75C13.1055 11.75 15.625 9.23047 15.625 6.125C15.625 3.01953 13.1055 0.5 10 0.5C6.89453 0.5 4.375 3.01953 4.375 6.125C4.375 9.23047 6.89453 11.75 10 11.75ZM15 13H12.8477C11.9805 13.3984 11.0156 13.625 10 13.625C8.98438 13.625 8.02344 13.3984 7.15234 13H5C2.23828 13 0 15.2383 0 18V18.625C0 19.6602 0.839844 20.5 1.875 20.5H18.125C19.1602 20.5 20 19.6602 20 18.625V18C20 15.2383 17.7617 13 15 13Z" fill="#7E4E24"/>
</svg>
