<svg width="42" height="26" viewBox="0 0 42 26" fill="none" xmlns="http://www.w3.org/2000/svg">
<path d="M12.1085 13C14.9343 13 17.2335 10.6634 17.2335 7.79167C17.2335 4.91992 14.9343 2.58333 12.1085 2.58333C9.2827 2.58333 6.9835 4.91992 6.9835 7.79167C6.9835 10.6634 9.2827 13 12.1085 13ZM34.6585 4.66667H20.3085C19.7422 4.66667 19.2835 5.13281 19.2835 5.70833V15.0833H4.9335V1.54167C4.9335 0.966146 4.47481 0.5 3.9085 0.5H1.8585C1.29218 0.5 0.833496 0.966146 0.833496 1.54167V24.4583C0.833496 25.0339 1.29218 25.5 1.8585 25.5H3.9085C4.47481 25.5 4.9335 25.0339 4.9335 24.4583V21.3333H37.7335V24.4583C37.7335 25.0339 38.1922 25.5 38.7585 25.5H40.8085C41.3748 25.5 41.8335 25.0339 41.8335 24.4583V11.9583C41.8335 7.93099 38.6214 4.66667 34.6585 4.66667Z" fill="#7E4E24"/>
</svg>
