<svg width="22" height="15" viewBox="0 0 22 15" fill="none" xmlns="http://www.w3.org/2000/svg">
<path d="M21.2143 11.7H0.785714C0.57733 11.7 0.37748 11.7738 0.23013 11.905C0.0827804 12.0363 0 12.2143 0 12.4L0 13.8C0 13.9857 0.0827804 14.1637 0.23013 14.295C0.37748 14.4263 0.57733 14.5 0.785714 14.5H21.2143C21.4227 14.5 21.6225 14.4263 21.7699 14.295C21.9172 14.1637 22 13.9857 22 13.8V12.4C22 12.2143 21.9172 12.0363 21.7699 11.905C21.6225 11.7738 21.4227 11.7 21.2143 11.7ZM21.2143 6.1H0.785714C0.57733 6.1 0.37748 6.17375 0.23013 6.30503C0.0827804 6.4363 0 6.61435 0 6.8L0 8.2C0 8.38565 0.0827804 8.5637 0.23013 8.69497C0.37748 8.82625 0.57733 8.9 0.785714 8.9H21.2143C21.4227 8.9 21.6225 8.82625 21.7699 8.69497C21.9172 8.5637 22 8.38565 22 8.2V6.8C22 6.61435 21.9172 6.4363 21.7699 6.30503C21.6225 6.17375 21.4227 6.1 21.2143 6.1ZM21.2143 0.5H0.785714C0.57733 0.5 0.37748 0.57375 0.23013 0.705025C0.0827804 0.836301 0 1.01435 0 1.2L0 2.6C0 2.78565 0.0827804 2.9637 0.23013 3.09497C0.37748 3.22625 0.57733 3.3 0.785714 3.3H21.2143C21.4227 3.3 21.6225 3.22625 21.7699 3.09497C21.9172 2.9637 22 2.78565 22 2.6V1.2C22 1.01435 21.9172 0.836301 21.7699 0.705025C21.6225 0.57375 21.4227 0.5 21.2143 0.5Z" fill="#7E4E24"/>
</svg>
