<svg width="27" height="32" viewBox="0 0 27 32" fill="none" xmlns="http://www.w3.org/2000/svg">
<path d="M13.6607 0.950087C13.7107 1.24384 14.667 6.85632 14.667 9.00006C14.667 12.2688 12.9295 14.6 10.3607 15.5375L11.167 30.4188C11.2107 31.275 10.5295 32 9.66699 32H5.66699C4.81074 32 4.12324 31.2813 4.16699 30.4188L4.97324 15.5375C2.39824 14.6 0.666992 12.2626 0.666992 9.00006C0.666992 6.85007 1.62324 1.24384 1.67324 0.950087C1.87324 -0.31866 4.50449 -0.33741 4.66699 1.01884V9.84381C4.74824 10.0563 5.61074 10.0438 5.66699 9.84381C5.75449 8.26257 6.16074 1.14384 6.16699 0.981337C6.37324 -0.31866 8.96074 -0.31866 9.16074 0.981337C9.17324 1.15009 9.57324 8.26257 9.66074 9.84381C9.71699 10.0438 10.5857 10.0563 10.6607 9.84381V1.01884C10.8232 -0.33116 13.4607 -0.31866 13.6607 0.950087ZM21.1107 18.8063L20.1732 30.375C20.0982 31.25 20.792 32 21.667 32H25.167C25.9982 32 26.667 31.3313 26.667 30.5V1.50009C26.667 0.675087 25.9982 8.93282e-05 25.167 8.93282e-05C20.0107 8.93282e-05 11.3295 11.1563 21.1107 18.8063Z" fill="#7E4E24"/>
</svg>
