<svg width="129" height="109" viewBox="0 0 129 109" fill="none" xmlns="http://www.w3.org/2000/svg">
<path d="M34.1129 32.4289C40.3817 26.0318 47.904 22.0228 56.6065 20.1455C68.7135 17.5338 80.2225 19.2208 90.8169 25.516C102.116 32.23 109.164 42.1592 111.633 55.0135C114.221 68.4863 111.344 80.832 102.854 91.7168C95.7928 100.769 86.4335 106.223 75.0523 108.269C71.1943 108.963 67.297 109.151 63.4064 108.884C55.1639 108.318 47.6349 105.664 40.9015 100.894C30.6846 93.6565 24.2133 83.972 22.1017 71.6983C19.6851 57.6519 23.1941 45.0784 32.4904 34.1403C32.9827 33.561 33.5385 33.0346 34.1129 32.4289ZM69.1137 29.7958C69.2743 29.723 69.5514 29.8744 69.5955 29.5582C67.2532 29.1781 64.8864 30.0551 62.3667 29.4905C63.1313 28.6862 63.9884 28.5716 64.7495 28.2981C70.0723 26.3859 75.4367 28.0456 78.3714 32.5071C79.5223 34.2567 80.0004 36.2114 80.0804 38.2811C80.1194 39.289 79.9425 40.3108 80.2164 41.4849C81.0946 39.918 81.7288 38.4251 82.6768 37.0989C85.8082 32.7183 91.9084 31.7695 96.0163 35.0535C96.3083 35.2869 96.7379 35.5424 96.4915 35.9663C96.205 36.4592 95.8291 36.04 95.504 35.91C93.7314 35.2007 91.9103 34.9335 89.8947 35.2321C90.6467 35.9511 91.7642 35.7196 92.4353 36.6656C90.3405 37.215 88.137 36.4584 86.1155 37.6616C87.465 37.4939 88.6598 37.4148 89.7752 38.086C88.009 38.746 86.1655 39.0852 84.2991 40.0705C84.9986 40.0829 85.5197 39.7041 85.9934 40.204C85.3602 40.8929 84.4575 41.0542 83.7688 41.553C83.0598 42.0664 82.3172 42.5304 82.1171 43.8061C88.3304 40.1531 94.1118 39.6082 99.2417 45.1085C100.873 46.8573 101.918 48.9543 101.582 51.502C100.123 49.318 98.9811 46.9235 96.6568 45.2187C96.5235 46.6247 97.4096 47.8303 96.6601 49.298C95.4278 47.5515 94.8029 45.5788 93.172 44.3332C93.4509 45.6605 94.028 46.8955 93.9514 48.5557C92.5213 46.9918 91.6564 45.2485 89.7607 44.2722C89.8581 45.3338 90.8181 45.9126 90.4682 47.0417C89.4807 46.3162 88.6332 45.5335 87.5529 45.1717C86.4564 44.8045 85.3405 44.5037 83.9341 45.151C85.4337 45.9586 86.7737 46.594 87.6243 47.8121C88.4726 49.027 89.0737 50.3336 88.7803 51.9233C87.1709 49.9318 85.7007 47.8308 83.2184 46.812C82.9019 47.3506 83.1781 47.5831 83.3223 47.8401C83.728 48.5633 84.1749 49.2654 84.551 50.0031C89.4174 59.5494 90.5052 69.5936 88.5315 80.0251C88.3948 80.7477 88.5443 81.0372 89.2771 81.1373C91.4663 81.4362 93.2407 82.5195 94.8326 83.9979C96.1546 85.2256 97.7358 86.029 99.5576 86.2507C100.94 86.4188 102.332 86.4703 103.727 86.5C104.596 86.5184 105.065 86.1793 105.46 85.4794C109.182 78.8841 111.12 71.7937 111.249 64.2632C111.326 59.773 110.648 55.344 109.287 51.0404C106.804 43.189 102.502 36.5077 96.1903 31.1155C88.0325 24.1455 78.456 20.8479 67.7939 20.3933C64.6884 20.2609 61.6126 20.6157 58.5589 21.1851C47.0535 23.3306 37.6823 28.9079 30.9014 38.3971C23.7278 48.4359 21.2456 59.5962 23.4187 71.7297C24.2956 76.626 26.0228 81.2207 28.5253 85.532C28.8467 86.0858 29.1627 86.5338 29.9486 86.5276C33.8321 86.4968 37.6151 85.8923 41.0899 84.163C45.0368 82.1988 48.8089 79.8882 53.0278 78.4827C55.1262 77.7837 56.6656 76.407 57.9094 74.6137C59.1265 72.8589 60.1736 70.9665 61.8738 69.5734C64.9722 67.0345 68.201 66.7746 71.4876 69.2178C73.0603 70.3869 74.3342 71.8521 75.5269 73.3858C77.7447 76.2379 80.3058 78.6688 83.7322 80.0712C84.9633 80.5752 85.0935 80.5544 85.5393 79.3284C86.5842 76.4546 87.0915 73.4592 87.2234 70.433C87.4839 64.4511 86.6528 58.6195 84.2744 53.0641C83.3361 50.8726 82.3727 48.6852 80.765 46.8675C79.6875 45.6494 79.1927 45.61 77.8305 46.5407C76.9886 47.116 76.3459 47.8835 75.7332 48.6852C75.5078 48.9801 75.3914 49.4807 74.8437 49.3823C74.5249 48.9326 74.9258 48.3697 74.6099 47.8653C73.6065 48.8253 73.2284 50.189 72.0832 51.0426C71.7609 50.1657 72.4288 49.4987 72.0867 48.7202C70.9638 50.1198 70.8656 52.0107 69.5063 53.437C69.2716 52.0319 69.8563 50.9386 69.7402 49.7651C68.4638 51.4324 68.4677 53.6763 67.2406 55.5791C66.678 54.2936 67.2686 53.1647 66.9617 51.8267C65.5871 54.3777 65.6297 57.0087 64.8597 59.4226C63.7091 56.4927 63.3871 53.6081 65.0583 50.7815C66.7815 47.8669 69.3545 46.0573 72.5831 45.0755C74.1989 44.5841 75.8108 44.0918 77.5189 43.9981C77.4471 43.4082 77.0531 43.401 76.7385 43.3019C75.1199 42.7915 73.6566 43.3196 72.2023 43.9555C71.7938 44.1341 71.3966 44.5213 70.8251 44.1891C71.0769 43.2428 72.1802 43.1261 72.6491 42.2809C70.623 42.4092 69.3158 43.9918 67.3162 44.5329C68.0052 43.1851 68.9499 42.381 69.8603 41.2737C67.4521 42.0766 65.7518 43.6119 63.7973 44.7437C64.4224 42.8938 65.7541 41.587 67.231 40.1854C66.3696 40.2221 65.872 40.5499 65.3871 40.8707C63.6595 42.0139 62.2613 43.4976 60.9927 45.1093C60.8188 45.3302 60.7805 45.813 60.3481 45.5587C59.9716 45.3372 60.2691 45.0158 60.3697 44.7375C60.8908 43.2961 61.6003 41.9457 62.4378 40.6489C59.8989 41.7555 58.7494 44.2872 56.7265 45.9456C56.6465 44.6737 57.5272 43.7038 57.6684 42.5128C57.134 42.4511 56.8992 42.8208 56.6109 43.0981C55.382 44.2803 54.3411 45.6156 53.3465 46.9907C53.172 47.2319 52.9632 47.5649 52.5906 47.3689C52.1922 47.1594 52.4241 46.8407 52.5427 46.5622C52.7589 46.0543 52.9601 45.5394 53.1961 45.0407C55.6266 39.9044 59.8814 37.3799 65.4403 37.0735C69.8503 36.8304 73.7832 38.3486 77.2288 41.0867C77.603 41.3841 77.949 41.7695 78.6212 41.8693C77.58 39.7713 75.8371 38.7016 73.7169 37.8082C74.9142 36.7384 75.9812 37.6644 77.1075 37.6899C76.2966 36.8109 75.4447 36.2587 74.4597 35.8532C73.542 35.4755 72.5176 35.3038 71.4278 34.5984C72.8908 34.1043 74.1194 34.5141 75.4219 34.2406C73.4896 32.917 71.1747 33.4569 68.9888 32.5737C70.5402 31.8819 71.9164 31.6465 73.3292 31.5292C71.0395 31.104 68.7231 31.2594 66.5005 31.0572C66.4486 30.6731 66.5446 30.5572 66.6751 30.5158C67.4357 30.2741 68.2013 30.0479 69.1137 29.7958ZM34.5101 93.5795C38.1866 97.4698 42.4031 100.672 47.2218 103.037C56.4443 107.561 66.1257 108.68 76.1872 106.589C87.2876 104.282 96.074 98.4431 102.772 89.448C103.043 89.0842 103.502 88.7433 103.217 88.1704C102.927 87.588 102.38 87.6319 101.859 87.6253C99.8044 87.5992 97.7523 87.7663 95.7032 87.7912C89.1913 87.8705 82.6782 87.9529 76.1665 87.9765C63.1372 88.0239 50.106 88.236 37.0775 87.846C35.2669 87.7918 33.4537 87.7747 31.6427 87.8035C30.4825 87.822 30.2572 88.2928 30.9186 89.2196C31.9844 90.7133 33.1514 92.1286 34.5101 93.5795Z" fill="white"/>
<path d="M100.796 17.3084C100.035 18.0722 99.3338 18.7913 98.6175 19.4956C98.1861 19.9197 97.8658 20.3306 98.4172 20.8945C98.7006 21.1843 98.706 21.5163 98.4193 21.8158C98.1278 22.1203 97.8089 21.9628 97.5838 21.757C96.9919 21.2161 96.4688 21.3574 95.8074 21.6915C93.908 22.6508 91.9053 23.1341 89.7524 22.6689C89.1345 22.5354 88.5418 22.3575 87.9898 22.0538C87.0773 21.5518 86.6266 20.7414 86.6855 19.7506C86.7439 18.7675 87.4826 18.2641 88.367 17.9899C89.3889 17.6731 90.4312 17.7059 91.4638 17.9303C92.6257 18.1829 93.736 18.605 94.7867 19.1446C95.624 19.5748 96.2735 19.4792 96.9348 18.8128C97.4178 18.3261 98.0084 17.9441 98.4568 17.4072C97.7901 17.1303 97.3341 17.4024 96.866 17.5313C95.9769 17.7762 95.0894 17.8668 94.1862 17.6728C92.4142 17.2922 91.6137 15.7804 92.31 14.1301C92.8714 12.7995 93.8574 11.7651 94.8096 10.7147C96.0195 9.37998 97.233 8.04928 98.1995 6.52451C98.5867 5.91351 98.9834 5.29964 98.9789 4.52979C98.9728 3.48567 98.2705 2.69359 97.2217 2.57111C94.9323 2.30378 92.3024 3.99568 91.6067 6.19623C91.5147 6.48723 91.5353 6.82269 91.1903 6.9754C90.4363 5.89477 90.4339 4.92386 91.1818 3.84165C92.3397 2.16603 95.9128 0.992084 97.8773 1.64185C100.277 2.43557 101.132 4.51887 100.046 6.84749C99.0452 8.99222 97.3182 10.5725 95.7809 12.3C95.136 13.0246 94.459 13.7205 93.9922 14.5791C93.425 15.6221 93.9149 16.5666 95.1132 16.7468C95.9319 16.8699 96.7281 16.7305 97.4571 16.3895C100.506 14.9635 103.293 13.1758 105.511 10.6061C106.317 9.67261 106.864 8.63136 107.017 7.41693C108.697 7.69921 108.934 8.07467 108.335 9.45875C107.398 11.6226 105.672 13.1265 103.909 14.6013C102.873 15.4681 101.867 16.3708 100.796 17.3084ZM87.8729 19.8814C87.8147 20.7205 88.3767 21.1407 89.0344 21.4053C90.3407 21.9308 91.6891 21.9545 92.9955 21.4147C93.6009 21.1645 94.3124 20.9983 94.7317 20.2C93.084 19.4803 91.437 19.1971 89.7332 19.1362C89.0486 19.1118 88.4076 19.1706 87.8729 19.8814Z" fill="white"/>
<path d="M9.8475 38.633C10.1979 38.869 10.494 39.0517 10.7728 39.2574C11.4435 39.7524 12.111 40.0094 12.8323 39.339C12.9822 39.1997 13.1829 39.0899 13.3913 39.264C13.5439 39.3915 13.5791 39.5794 13.4804 39.7304C12.79 40.7867 12.0851 41.8339 11.4117 42.8438C10.8756 42.6838 10.8897 42.3638 10.9941 42.1264C11.3721 41.2668 10.9182 40.7673 10.285 40.3034C7.85098 38.5203 5.4017 36.7565 3.00222 34.9287C1.98979 34.1576 1.09157 34.4237 0.201185 35.0617C-0.244526 34.4702 0.157505 34.1252 0.380975 33.777C2.29947 30.7878 1.33116 31.2988 4.73623 31.9831C7.15496 32.4692 9.55137 33.0641 11.9573 33.6124C12.322 33.6955 12.6863 33.8478 13.1815 33.491C12.2426 32.0189 11.3031 30.5471 10.3649 29.0746C9.4739 27.6764 8.58467 26.277 7.69332 24.879C7.52533 24.6155 7.29226 24.3363 7.46286 24.0241C7.98397 23.0707 8.4054 22.0476 9.24174 21.206C9.38909 21.3758 9.5634 21.4978 9.54409 21.5663C9.20126 22.782 10.0153 23.3776 10.8196 24.0119C13.1911 25.8822 15.719 27.5304 18.2254 29.2121C19.0686 29.7779 19.845 29.6282 20.6518 29.1518C20.7789 30.0506 19.0183 32.5993 17.8829 33.1819C18.3201 31.2355 16.6952 30.8358 15.604 30.0542C14.0254 28.9236 12.4064 27.8481 10.8054 26.7481C10.4937 26.534 10.2027 26.2782 9.4989 26.2647C11.6592 29.6702 13.7348 32.9422 15.8104 36.2141C15.7295 36.3247 15.6485 36.4352 15.5676 36.5457C11.799 35.7492 8.03044 34.9528 4.26186 34.1563C4.20142 34.265 4.14099 34.3737 4.08056 34.4824C5.98217 35.8516 7.88378 37.2209 9.8475 38.633Z" fill="white"/>
<path d="M114.84 33.0554C115.032 31.6068 115.21 30.2437 115.402 28.8826C115.457 28.4929 115.523 28.0928 115.092 27.8894C114.699 27.7038 114.44 28.0186 114.192 28.2514C113.301 29.0877 112.133 29.7853 112.777 31.4787C111.481 30.4009 110.446 29.4415 109.623 28.2453C109.79 28.116 109.89 27.9894 109.941 28.0065C111.308 28.462 112.048 27.5116 112.893 26.7558C115.011 24.8608 117.124 22.9589 119.282 21.1095C120.234 20.2938 121.25 19.5869 120.409 18.1338C120.368 18.0629 120.492 17.8981 120.608 17.6034C121.623 18.3692 122.563 19.0784 123.496 19.7824C123.269 20.4378 122.805 20.7681 122.395 21.1219C120.743 22.5499 119.071 23.9552 117.407 25.3694C117.065 25.66 116.616 25.9341 116.708 26.4416C116.806 26.9779 117.352 27.0353 117.781 27.1052C119.742 27.4246 119.389 27.6048 120.568 26.0455C121.585 26.8722 122.465 27.8229 123.336 28.782C123.485 28.9461 123.531 29.1727 123.365 29.3476C123.131 29.5944 122.856 29.5137 122.604 29.3569C121.36 28.5823 119.955 28.3769 118.538 28.1647C117.761 28.0484 117.351 28.1992 117.256 29.0389C117.075 30.6435 116.868 32.2473 116.6 33.8394C116.466 34.6326 117.003 35.3559 116.795 36.1573C115.664 35.7569 114.642 34.1509 114.84 33.0554Z" fill="white"/>
<path d="M54.2659 6.20973C54.2398 5.87647 54.2229 5.63567 54.2153 5.39459C54.1719 4.02266 53.8354 2.85391 52.1356 2.67973C52.8109 1.77879 54.973 1.2565 55.7905 1.72077C56.1793 1.94158 56.4473 1.73329 56.7406 1.54474C57.3857 1.13009 58.0465 0.742672 58.8276 0.641465C61.2701 0.324978 62.619 1.59092 62.9145 4.44256C63.0454 5.70611 63.1987 6.96777 63.367 8.227C63.4535 8.87412 63.6969 9.42491 64.4516 9.57146C64.6962 9.61897 64.9391 9.74622 64.896 10.05C64.8546 10.3419 64.5916 10.4001 64.3447 10.4278C63.2042 10.5556 62.0634 10.6815 60.9216 10.7967C60.6647 10.8226 60.418 10.7561 60.3641 10.4571C60.3205 10.2155 60.487 10.0463 60.6918 9.9911C61.618 9.74136 61.5803 9.06123 61.4796 8.34074C61.2845 6.94448 61.0988 5.54689 60.8967 4.15163C60.7231 2.95343 60.1248 2.29421 59.0411 2.07429C58.203 1.90421 56.6065 2.5458 56.1527 3.21908C55.9605 3.50426 56.0116 3.80908 56.0087 4.11691C55.9931 5.775 56.3589 7.39631 56.5 9.03978C56.5564 9.697 56.788 10.3416 57.6577 10.3993C57.876 10.4137 58.0565 10.5432 58.0551 10.796C58.0534 11.1035 57.8263 11.204 57.5725 11.239C56.472 11.3906 55.3712 11.5406 54.2681 11.672C53.9977 11.7042 53.6731 11.7224 53.5741 11.3738C53.4939 11.0913 53.6924 10.9102 53.9318 10.8212C54.5841 10.5785 54.6908 10.0634 54.6318 9.47679C54.5251 8.41747 54.398 7.36019 54.2659 6.20973Z" fill="white"/>
<path d="M112.073 18.5282C111.98 18.1304 111.797 17.8043 112.115 17.3744C113.09 17.6898 113.776 18.4925 114.789 18.9246C113.841 20.4836 112.527 21.5348 111.505 22.8206C110.968 23.4973 110.388 24.1409 109.839 24.8093C109.33 25.4287 109.105 26.0648 109.78 26.7306C109.907 26.8561 109.941 27.0325 109.869 27.2115C109.284 27.2673 106.905 26.1433 106.994 25.7705C107.44 23.9075 105.967 24.4593 105.126 24.2351C102.683 23.584 101.754 21.1608 103.254 19.1292C103.989 18.1334 104.911 17.2735 105.739 16.344C106.442 15.556 107.397 14.8567 106.5 13.3122C107.771 13.7113 108.59 14.1807 109.292 14.7964C109.692 15.1476 109.249 15.4841 109.001 15.7468C107.812 17.0057 106.613 18.256 105.41 19.5024C104.112 20.8475 104.008 21.7451 105.058 22.675C106.221 23.7058 108.267 23.6551 109.196 22.5671C109.983 21.6459 110.764 20.7196 111.546 19.794C111.84 19.4466 112.101 19.0829 112.073 18.5282Z" fill="white"/>
<path d="M119.37 41.3526C117.457 38.7756 117.622 35.9945 119.748 34.1391C122.202 31.9965 125.209 31.9725 127.445 34.1457C128.947 35.606 129.323 37.4445 128.737 39.3883C128.131 41.3973 126.627 42.5864 124.603 43.107C122.521 43.6426 120.873 42.7943 119.37 41.3526ZM119.399 38.3565C119.249 40.6475 120.98 42.0558 123.221 41.4643C124.998 40.9954 126.274 39.8627 127.282 38.4055C127.923 37.478 128.08 36.4925 127.352 35.5262C126.625 34.5607 125.67 34.1326 124.438 34.389C122.15 34.8651 120.43 36.0613 119.399 38.3565Z" fill="white"/>
<path d="M26.526 24.666C25.8575 24.5 25.6621 24.8682 25.4862 25.3281C25.1042 26.3266 24.4075 27.0889 23.5207 27.6704C22.355 28.4349 21.5107 28.4098 20.5621 27.6359C19.6839 26.9194 19.4151 25.7714 19.8682 24.638C20.2787 23.6109 20.7923 22.6418 21.432 21.7301C21.7011 21.3465 22.3984 21.0576 22.0167 20.4434C21.5997 19.7723 21.0962 19.1157 20.239 18.95C19.457 18.7989 18.7925 19.0679 18.2961 19.6837C17.8234 20.2702 17.9044 20.8977 18.2197 21.5252C18.3125 21.7101 18.4368 21.8843 18.4991 22.0784C18.705 22.7203 18.2254 23.042 17.8046 23.3185C17.3087 23.6444 17.1452 23.1311 16.9473 22.8495C16.2148 21.807 16.3976 20.3535 17.4299 19.0276C17.8341 18.5086 18.3154 18.0607 18.8792 17.7022C20.3195 16.7863 21.4415 16.8404 22.6224 18.0575C23.6559 19.1225 24.5801 20.2915 25.5508 21.416C25.6636 21.5467 25.7615 21.6901 25.8731 21.8219C26.8413 22.9648 27.014 22.9741 28.0161 21.9421C28.7039 22.9692 28.1054 24.1203 26.526 24.666ZM24.1428 22.7399C22.8033 21.1717 22.5271 21.2086 21.5933 23.0922C21.4563 23.3687 21.3281 23.6524 21.2278 23.9435C20.9424 24.7715 21.2087 25.4265 21.9263 25.9001C22.7384 26.4361 23.5439 26.2972 24.2358 25.5291C25.1397 24.5255 25.1405 23.9541 24.1428 22.7399Z" fill="white"/>
<path d="M78.9854 11.9035C77.8106 11.9456 77.3725 11.2447 77.1469 10.3817C76.6215 10.1684 76.2987 10.5292 75.932 10.6768C74.3136 11.328 72.7277 11.2332 72.0075 10.4127C71.2102 9.50427 71.3037 7.80345 72.2307 6.35525C73.9214 3.71369 76.6154 2.83155 79.7113 3.90965C79.9109 3.97914 80.0897 4.05469 80.3034 3.92944C81.2355 3.38331 81.4748 1.24912 80.6751 0.56326C80.5711 0.474052 80.4528 0.388286 80.5553 0.0940226C81.4595 -0.152672 82.3884 0.127923 83.2658 0.453007C83.8119 0.655339 83.4898 1.19787 83.3588 1.54589C82.8225 2.9699 82.0508 4.28505 81.3484 5.63232C80.7098 6.85731 80.0792 8.08711 79.4819 9.33211C79.2801 9.75279 78.9948 10.2582 79.4366 10.6783C79.9349 11.1521 80.4054 10.689 80.8664 10.5125C81.2738 10.3565 81.5277 9.87816 82.0487 9.94098C82.1222 10.9618 80.8313 11.809 78.9854 11.9035ZM74.3305 10.1508C75.1381 10.2356 75.834 9.9422 76.489 9.51968C77.6919 8.7438 78.5168 7.64819 79.1665 6.40592C79.7645 5.26253 79.3859 4.49046 78.1002 4.26819C77.4635 4.15813 76.8491 4.27225 76.2782 4.57055C74.784 5.35126 73.8123 6.58507 73.2874 8.14188C72.9979 9.00043 73.1136 9.7956 74.3305 10.1508Z" fill="white"/>
<path d="M50.8601 11.0903C49.6957 13.1898 47.849 13.9504 45.6557 13.7113C43.4361 13.4693 42.0454 12.0855 41.4023 9.97359C40.7727 7.9057 41.4502 5.32196 42.9176 4.21111C44.737 2.83387 47.4225 2.67217 49.1868 3.83365C51.4255 5.30757 52.1227 8.23538 50.8601 11.0903ZM43.0239 7.55611C43.2075 9.33451 43.8983 10.8818 45.2543 12.0801C45.9991 12.7383 46.8867 12.9775 47.8665 12.5742C48.8362 12.175 49.4774 11.5002 49.6129 10.443C49.8517 8.57867 49.3606 6.88789 48.2439 5.3915C47.6977 4.65964 46.9893 4.09824 46.0016 4.04171C44.08 3.93174 43.0085 5.12412 43.0239 7.55611Z" fill="white"/>
<path d="M38.1764 16.4284C38.8555 15.9684 39.3406 15.4382 39.0675 14.6658C38.7813 13.8566 38.1281 13.4338 37.2404 13.3432C36.2545 13.2425 35.3136 13.5834 34.3352 13.562C32.752 13.5275 31.9229 13.0802 31.4824 11.9414C31.0409 10.8002 31.3992 9.25597 32.3582 8.43977C33.4773 7.48726 34.8433 7.08996 36.2729 6.87306C36.4891 6.84027 36.7315 6.86774 36.8404 7.05294C37.1957 7.65741 37.6035 8.24661 37.7729 8.92209C37.2568 9.22719 37.0051 8.87428 36.7218 8.73933C35.8255 8.31248 34.9177 8.24004 33.9929 8.59107C33.2108 8.88792 32.6489 9.40102 32.8299 10.305C33.0013 11.1612 33.6305 11.5944 34.4947 11.5719C35.4301 11.5475 36.3622 11.3896 37.2975 11.3688C39.0909 11.3289 40.1167 11.9934 40.5341 13.3839C40.9666 14.8248 40.4326 16.2277 38.9669 17.0667C37.98 17.6317 36.8894 18.0218 35.8368 18.4708C35.5772 18.5816 35.2495 18.62 35.0853 18.3262C34.6725 17.5872 34.1848 16.8753 33.8961 15.6977C35.3701 16.5466 36.6472 17.2963 38.1764 16.4284Z" fill="white"/>
<path d="M32.4666 19.5097C33.2946 19.502 33.356 19.8969 32.8708 20.2956C32.0965 20.9319 31.2336 21.4637 30.4003 22.0283C30.2028 22.1621 29.9739 22.3029 29.7479 22.0584C29.5693 21.8652 29.6378 21.6554 29.7761 21.4965C30.2498 20.9526 30.0092 20.4854 29.657 20.0112C28.8525 18.928 28.0909 17.8112 27.2432 16.7624C26.4177 15.741 25.8712 14.1671 23.8647 15.0311C24.4047 13.7486 25.423 13.1507 26.2491 12.1726C27.3751 13.6635 28.4137 15.0307 29.443 16.4047C30.0447 17.2079 30.6106 18.0382 31.2342 18.8239C31.5182 19.1816 31.7711 19.6777 32.4666 19.5097Z" fill="white"/>
<path d="M86.56 2.47295C86.8582 2.00792 87.2134 1.84356 87.672 1.99857C88.158 2.16283 88.3757 2.55268 88.4164 3.02615C88.4891 3.87053 88.2203 4.62925 87.5261 5.1186C86.8317 5.60811 86.0463 5.96967 85.0967 6.03898C85.1277 5.441 85.5911 5.35701 85.9224 5.18521C86.6371 4.81454 87.0329 4.36872 86.5475 3.54737C86.3658 3.2399 86.3953 2.88295 86.56 2.47295Z" fill="white"/>
<path d="M24.9254 9.62275C25.5038 10.2064 25.6859 10.7888 25.1745 11.4117C24.786 11.885 24.24 12.0415 23.6803 11.8097C23.0819 11.5619 22.8035 11.0508 22.8755 10.3972C22.9751 9.49214 23.7471 9.17564 24.9254 9.62275Z" fill="white"/>
<path d="M40.1282 67.2145C39.0884 65.8759 38.5639 64.4792 39.3448 62.9363C40.1261 61.3925 41.5198 60.8062 43.2191 60.784C44.6234 60.7657 44.6333 60.7402 44.5879 59.2858C44.5518 58.1319 44.5808 57.0066 45.4199 56.0744C47.2269 54.0666 50.5059 54.4768 51.8787 56.8894C51.9809 57.0691 52.0701 57.2574 52.15 57.4481C52.8027 59.006 52.8016 59.0065 54.5176 58.5929C57.0923 57.9725 59.1054 59.1528 59.4989 61.5982C59.749 63.1526 59.094 64.4364 57.9342 65.4535C56.8094 66.4399 56.7899 66.4181 57.6476 67.6921C59.3276 70.1876 58.3881 73.1151 55.6884 73.7045C54.3362 73.9998 53.038 73.7616 51.9177 72.9338C51.1219 72.3459 50.6383 72.4394 50.0802 73.2924C49.1129 74.771 47.7631 75.7003 45.8614 75.3435C43.4972 74.8999 42.198 72.6317 42.869 70.1953C43.2605 68.7739 43.2616 68.7707 41.867 68.2726C41.2368 68.0475 40.6585 67.7427 40.1282 67.2145ZM48.4824 61.6968C48.3575 61.2174 48.2073 60.6351 48.8157 60.4628C49.5247 60.2621 49.4697 60.9863 49.655 61.3877C49.6837 61.45 49.707 61.5164 49.7209 61.5833C49.7849 61.8935 49.8417 62.2255 50.2569 62.2262C50.5899 62.2269 50.7186 61.948 50.833 61.6983C51.5575 60.1158 51.4048 58.6137 50.3483 57.2274C49.7533 56.4467 48.4542 56.0262 47.6452 56.2972C46.54 56.6675 46.0176 57.4185 45.9577 58.6367C45.8844 60.1287 46.5771 61.2819 47.5609 62.3131C47.7496 62.5109 47.9702 62.739 48.2801 62.6393C48.7018 62.5036 48.5496 62.1477 48.4824 61.6968ZM49.6142 69.358C49.599 69.0446 49.6033 68.6966 49.1992 68.6279C48.8777 68.5733 48.7029 68.8302 48.5512 69.0637C48.4199 69.2659 48.3284 69.495 48.1863 69.6884C47.9469 70.0143 47.7103 70.4804 47.207 70.1819C46.7897 69.9345 46.9583 69.5238 47.1271 69.1668C47.2449 68.9177 47.3723 68.6718 47.4706 68.4152C47.5584 68.1857 47.597 67.941 47.401 67.7371C47.155 67.4809 46.8911 67.5954 46.639 67.7266C45.1559 68.4982 44.1872 69.6363 44.0847 71.3512C44.0159 72.5016 44.6138 73.4316 45.6058 73.808C46.6233 74.1941 47.6599 73.9228 48.4211 73.0507C49.3028 72.0406 49.7108 70.8666 49.6142 69.358ZM56.4703 60.012C54.766 59.6425 53.471 60.2917 52.5104 61.644C52.2071 62.0709 51.6333 62.6153 51.9785 63.099C52.3823 63.6646 52.9724 63.0585 53.477 62.9352C53.808 62.8542 54.183 62.6407 54.413 63.0383C54.6652 63.4741 54.2798 63.7209 54.0108 63.9828C53.6383 64.3456 52.9365 64.3308 52.7821 64.9707C54.3103 65.7809 56.6347 65.0991 57.6594 63.5764C58.6465 62.1096 58.2636 60.8126 56.4703 60.012ZM53.3241 68.8579C52.6703 68.9212 52.25 68.4199 51.7102 68.2082C51.0737 67.9585 50.7624 68.1813 50.842 68.8643C51.0163 70.3614 52.7799 72.1429 54.3018 72.3706C56.0103 72.6262 57.498 71.1859 57.0804 69.6804C56.7019 68.3157 54.6934 66.7509 53.2467 66.6951C53.0278 66.6866 52.8277 66.7215 52.726 66.9747C52.7425 67.66 54.2568 67.7763 53.3241 68.8579ZM46.8545 63.8856C45.7032 62.1442 42.718 61.635 41.123 62.908C40.2549 63.6009 40.0949 64.7517 40.7364 65.6888C41.7418 67.1577 44.8824 67.5615 46.2306 66.398C46.6228 66.0595 46.5108 65.8027 46.0905 65.6346C45.8696 65.5462 45.6195 65.5147 45.3793 65.4909C44.9082 65.4442 44.3805 65.3872 44.4377 64.7826C44.501 64.1144 45.1002 64.189 45.5809 64.2093C46.0126 64.2275 46.4733 64.5084 46.8545 63.8856ZM49.7746 66.3827C50.4583 66.2671 50.8894 65.8772 50.7381 65.1852C50.6006 64.5567 50.0549 64.3588 49.4342 64.4463C48.971 64.5116 48.6293 64.8032 48.619 65.2502C48.6046 65.8776 49.0208 66.2366 49.7746 66.3827Z" fill="white"/>
<path d="M40.8113 92.7052C40.9336 92.3577 41.1631 92.2875 41.419 92.3035C44.5063 92.4972 47.515 91.9119 50.5391 91.4393C53.8225 90.9262 57.0585 91.4596 60.2872 91.9942C62.7221 92.3973 65.1511 92.8519 67.6149 93.0398C70.3779 93.2505 73.1171 92.9058 75.8143 92.3911C80.0718 91.5788 84.3115 91.576 88.5697 92.2819C88.9086 92.3381 89.3683 92.3367 89.3616 92.7771C89.3528 93.3504 88.8181 93.1962 88.4761 93.1987C86.3578 93.2145 84.2479 93.0007 82.1191 93.1498C79.8239 93.3106 77.5617 93.6549 75.3093 94.0593C70.5893 94.9067 65.9162 94.7465 61.2398 93.7289C58.6269 93.1603 55.9773 92.757 53.286 92.801C51.299 92.8334 49.3586 93.274 47.3946 93.5042C45.4978 93.7265 43.5806 93.8423 41.6944 93.3729C41.3493 93.2871 40.9059 93.2613 40.8113 92.7052Z" fill="white"/>
<path d="M51.7612 97.8801C56.135 96.3804 60.4863 96.657 64.8353 97.4962C68.7165 98.2451 72.5822 98.1936 76.4575 97.5169C76.7319 97.469 77.008 97.4307 77.2816 97.3791C77.6577 97.308 78.1045 97.1545 78.2227 97.6834C78.3215 98.1255 77.9033 98.2317 77.5723 98.3447C75.9887 98.8852 74.3548 99.1856 72.6995 99.4272C69.1904 99.9394 65.7624 99.2988 62.3398 98.7338C59.0479 98.1904 55.7807 98.0827 52.4967 98.7103C52.1348 98.7794 51.7075 98.9277 51.4283 98.5591C51.2147 98.277 51.3836 98.0439 51.7612 97.8801Z" fill="white"/>
</svg>
